
          <svg data-logo="logo" xmlns="http://www.w3.org/2000/svg" viewBox="0 0 214 24">
            <g id="logogram" transform="translate(0, 12) rotate(0)"></g>
            <g id="logotype" transform="translate(0, 1)"><path fill="#000000" d="M21.88 22L4.38 22L4.38 17.63L17.50 17.63L17.50 13.25L8.75 13.25L8.75 8.87L4.38 8.87L4.38 4.50L8.75 4.50L8.75 0.12L26.25 0.12L26.25 4.50L13.13 4.50L13.13 8.87L21.88 8.87L21.88 13.25L26.25 13.25L26.25 17.63L21.88 17.63L21.88 22ZM40.25 22L31.50 22L31.50 0.12L40.25 0.12L40.25 8.87L44.63 8.87L44.63 0.12L53.38 0.12L53.38 22L44.63 22L44.63 13.25L40.25 13.25L40.25 22ZM67.38 22L58.63 22L58.63 0.12L67.38 0.12L67.38 8.87L71.75 8.87L71.75 0.12L80.50 0.12L80.50 22L71.75 22L71.75 13.25L67.38 13.25L67.38 22ZM94.50 13.25L85.75 13.25L85.75 0.12L94.50 0.12L94.50 13.25ZM94.50 22L85.75 22L85.75 17.63L94.50 17.63L94.50 22ZM122.50 22L113.75 22L113.75 0.12L122.50 0.12L122.50 4.50L126.88 4.50L126.88 8.87L131.25 8.87L131.25 0.12L140.00 0.12L140.00 22L131.25 22L131.25 17.63L126.88 17.63L126.88 13.25L122.50 13.25L122.50 22ZM162.75 22L149.63 22L149.63 17.63L145.25 17.63L145.25 4.50L149.63 4.50L149.63 0.12L162.75 0.12L162.75 4.50L167.13 4.50L167.13 17.63L162.75 17.63L162.75 22ZM154 4.67L154 17.45L158.38 17.45L158.38 4.67L154 4.67ZM185.50 22L176.75 22L176.75 4.50L172.38 4.50L172.38 0.12L189.88 0.12L189.88 4.50L185.50 4.50L185.50 22ZM212.63 22L195.13 22L195.13 0.12L212.63 0.12L212.63 4.50L203.88 4.50L203.88 8.87L212.63 8.87L212.63 13.25L203.88 13.25L203.88 17.63L212.63 17.63L212.63 22Z"/></g>
            
          </svg>
        