
          <svg data-logo="logo" xmlns="http://www.w3.org/2000/svg" viewBox="0 0 164 30">
            <g id="logogram" transform="translate(0, 15) rotate(0)"></g>
            <g id="logotype" transform="translate(0, 1)"><path fill="#000000" d="M0.44 11.58L0.44 11.58Q0.55 11.07 0.58 10.75Q0.62 10.42 0.34 10.05L0.34 10.05Q0.48 9.50 0.56 9.19Q0.65 8.88 0.58 8.34L0.58 8.34Q0.89 7.45 1.52 6.83Q2.15 6.22 2.91 5.79Q3.66 5.36 4.48 5.07Q5.30 4.78 6.02 4.58L6.02 4.58Q6.02 4.44 5.88 4.44Q5.74 4.44 5.81 4.27L5.81 4.27Q7.66 3.93 9.52 3.28Q11.38 2.63 13.33 2.12Q15.28 1.60 17.33 1.48Q19.38 1.37 21.64 2.01L21.64 2.01Q21.77 2.42 22.01 2.80Q22.25 3.18 22.51 3.54Q22.76 3.89 22.97 4.24Q23.17 4.58 23.21 4.95L23.21 4.95Q23.62 5.33 23.87 5.76Q24.13 6.18 23.96 6.90L23.96 6.90Q23.58 7.18 23.17 7.45Q22.76 7.72 22.32 7.96L22.32 7.96Q20.78 7.59 19.24 7.69Q17.71 7.79 16.47 7.93L16.47 7.93Q16.10 7.52 15.59 7.53Q15.07 7.55 14.51 7.71Q13.95 7.86 13.40 8.01Q12.85 8.17 12.37 8.10L12.37 8.10Q12.00 8.44 11.38 8.56Q10.77 8.68 10.08 8.75L10.08 8.75Q10.05 8.92 10.15 8.99Q10.25 9.06 10.19 9.26L10.19 9.26Q10.42 9.57 10.83 9.69Q11.25 9.81 11.67 9.91Q12.10 10.01 12.44 10.20Q12.78 10.39 12.89 10.80L12.89 10.80Q13.50 10.83 13.95 11.12Q14.39 11.41 14.70 11.82Q15.00 12.23 15.14 12.70Q15.28 13.16 15.24 13.53L15.24 13.53Q15.38 13.88 15.53 13.81Q15.69 13.74 15.89 13.98L15.89 13.98Q16.03 14.49 16.53 15.05Q17.02 15.62 17.29 16.27L17.29 16.27Q17.36 17.29 17.41 18.11Q17.47 18.93 17.12 19.72L17.12 19.72Q16.54 21.22 15.45 22.42Q14.36 23.62 12.97 24.52Q11.59 25.43 10.05 26.09Q8.51 26.76 7.01 27.21L7.01 27.21Q6.87 27.17 6.68 27.21Q6.49 27.24 6.60 27L6.60 27Q6.29 27.27 5.90 27.34Q5.50 27.41 5.04 27.39Q4.58 27.38 4.12 27.34Q3.66 27.31 3.21 27.38L3.21 27.38Q2.94 27.10 2.72 26.83Q2.50 26.56 2.36 26.18L2.36 26.18Q2.19 26.15 2.20 25.96Q2.22 25.77 2.05 25.77L2.05 25.77Q2.05 25.63 2.08 25.56Q2.12 25.50 2.15 25.43L2.15 25.43Q2.29 25.33 2.27 25.27Q2.26 25.22 2.17 25.17Q2.08 25.12 2.00 25.05Q1.91 24.98 1.95 24.88L1.95 24.88Q2.12 24.57 2.07 24.15Q2.02 23.72 1.98 23.27Q1.95 22.83 2.05 22.44Q2.15 22.04 2.63 21.77L2.63 21.77Q4.03 21.91 5.28 21.63Q6.53 21.36 7.64 20.88Q8.75 20.40 9.76 19.84Q10.77 19.28 11.72 18.80L11.72 18.80Q11.83 18.46 12.05 18.22Q12.27 17.98 12.51 17.75Q12.75 17.53 12.95 17.28Q13.16 17.02 13.26 16.64L13.26 16.64Q13.30 16.51 13.26 16.44Q13.23 16.37 13.16 16.32Q13.09 16.27 13.02 16.20Q12.95 16.13 12.95 15.99L12.95 15.99Q12.85 15.96 12.77 15.93Q12.68 15.89 12.61 15.89L12.61 15.89Q11.72 15.45 10.73 15.14Q9.74 14.83 9.06 14.46L9.06 14.46Q8.65 14.73 8.24 14.59Q7.83 14.46 7.25 14.32L7.25 14.32Q5.81 14.25 4.53 14.05Q3.25 13.84 2.05 13.33L2.05 13.33Q1.98 13.12 1.88 12.97Q1.78 12.82 1.40 12.88L1.40 12.88Q1.16 12.54 0.91 12.25Q0.65 11.96 0.44 11.58ZM37.67 23.68L37.67 23.68Q37.73 24.57 37.46 25.15Q37.19 25.74 36.71 26.15Q36.23 26.56 35.62 26.79Q35 27.03 34.42 27.24L34.42 27.24Q34.15 27.07 33.89 26.88Q33.63 26.69 33.29 26.59L33.29 26.59Q32.85 25.77 32.44 25.14Q32.03 24.50 32.06 23.68L32.06 23.68Q32.06 23.65 32.11 23.31Q32.16 22.97 32.25 22.56Q32.33 22.15 32.39 21.79Q32.44 21.43 32.44 21.39L32.44 21.39Q31.65 21.46 30.80 21.74Q29.94 22.01 29.14 22.39Q28.33 22.76 27.63 23.14Q26.93 23.51 26.49 23.79L26.49 23.79Q26.49 23.89 26.35 24.28Q26.22 24.68 26.01 25.10Q25.81 25.53 25.57 25.87Q25.33 26.21 25.09 26.21L25.09 26.21Q25.12 26.32 25.19 26.42Q25.26 26.52 25.19 26.69L25.19 26.69Q24.71 26.83 24.34 27.05Q23.96 27.27 23.55 27.43Q23.14 27.58 22.66 27.58Q22.18 27.58 21.53 27.24L21.53 27.24Q21.53 27.03 21.36 26.88Q21.19 26.73 21.00 26.61Q20.82 26.49 20.68 26.40Q20.54 26.32 20.54 26.25L20.54 26.25Q20.37 26.28 20.41 26.01Q20.44 25.74 20.68 25.87L20.68 25.87Q20.30 25.39 20.22 25.03Q20.13 24.68 19.82 24.13L19.82 24.13Q19.89 24.06 19.94 23.89Q20.00 23.72 20.03 23.58Q20.06 23.45 20.13 23.38Q20.20 23.31 20.30 23.41L20.30 23.41Q20.23 23.10 20.30 22.90Q20.37 22.69 20.44 22.52Q20.51 22.35 20.54 22.18Q20.58 22.01 20.44 21.80L20.44 21.80Q20.99 21.05 21.16 20.18Q21.33 19.31 21.36 18.59L21.36 18.59Q21.60 18.35 21.79 17.91Q21.98 17.46 22.08 17.00Q22.18 16.54 22.17 16.11Q22.15 15.69 22.05 15.41L22.05 15.41Q22.08 15.24 22.42 15.31L22.42 15.31Q22.63 14.18 22.71 12.76Q22.80 11.35 23.00 10.06Q23.21 8.78 23.69 7.81Q24.17 6.83 25.22 6.53L25.22 6.53Q25.43 7.24 25.75 7.79Q26.08 8.34 26.47 8.83Q26.87 9.33 27.26 9.84Q27.65 10.35 27.99 11.00L27.99 11.00Q27.96 11.65 27.86 12.51Q27.75 13.36 27.60 14.25Q27.45 15.14 27.29 15.96Q27.14 16.78 27.00 17.36L27.00 17.36Q27.04 17.53 27.19 17.57Q27.34 17.60 27.24 17.87L27.24 17.87Q28.06 17.67 28.95 17.50Q29.84 17.33 30.73 17.12Q31.62 16.92 32.45 16.66Q33.29 16.40 34.01 16.03L34.01 16.03Q34.18 14.70 34.45 13.36Q34.73 12.03 34.52 10.63L34.52 10.63Q34.69 10.49 34.79 10.29Q34.90 10.08 35.14 10.01L35.14 10.01Q34.97 9.36 35 8.65Q35.03 7.93 35.26 7.28Q35.48 6.63 35.91 6.17Q36.33 5.71 36.95 5.57L36.95 5.57Q37.32 6.12 37.60 6.75Q37.87 7.38 38.16 8.01Q38.45 8.65 38.78 9.21Q39.10 9.77 39.61 10.18L39.61 10.18Q39.72 11.17 39.77 12.23Q39.82 13.29 39.85 14.39L39.85 14.39Q39.58 15.69 39.26 16.90Q38.93 18.11 38.79 19.48L38.79 19.48Q38.55 19.75 38.42 20.10Q38.28 20.44 38.14 20.80Q38.01 21.16 37.84 21.48Q37.67 21.80 37.43 22.04L37.43 22.04Q37.56 22.45 37.48 22.81Q37.39 23.17 37.67 23.68ZM58.04 23.68L58.04 23.68Q58.11 24.57 57.83 25.15Q57.56 25.74 57.08 26.15Q56.60 26.56 55.99 26.79Q55.37 27.03 54.79 27.24L54.79 27.24Q54.52 27.07 54.26 26.88Q54.00 26.69 53.66 26.59L53.66 26.59Q53.22 25.77 52.81 25.14Q52.40 24.50 52.43 23.68L52.43 23.68Q52.43 23.65 52.48 23.31Q52.53 22.97 52.62 22.56Q52.71 22.15 52.76 21.79Q52.81 21.43 52.81 21.39L52.81 21.39Q52.02 21.46 51.17 21.74Q50.31 22.01 49.51 22.39Q48.71 22.76 48.01 23.14Q47.30 23.51 46.86 23.79L46.86 23.79Q46.86 23.89 46.72 24.28Q46.59 24.68 46.38 25.10Q46.18 25.53 45.94 25.87Q45.70 26.21 45.46 26.21L45.46 26.21Q45.49 26.32 45.56 26.42Q45.63 26.52 45.56 26.69L45.56 26.69Q45.08 26.83 44.71 27.05Q44.33 27.27 43.92 27.43Q43.51 27.58 43.03 27.58Q42.55 27.58 41.90 27.24L41.90 27.24Q41.90 27.03 41.73 26.88Q41.56 26.73 41.37 26.61Q41.19 26.49 41.05 26.40Q40.91 26.32 40.91 26.25L40.91 26.25Q40.74 26.28 40.78 26.01Q40.81 25.74 41.05 25.87L41.05 25.87Q40.67 25.39 40.59 25.03Q40.50 24.68 40.20 24.13L40.20 24.13Q40.26 24.06 40.31 23.89Q40.37 23.72 40.40 23.58Q40.43 23.45 40.50 23.38Q40.57 23.31 40.67 23.41L40.67 23.41Q40.61 23.10 40.67 22.90Q40.74 22.69 40.81 22.52Q40.88 22.35 40.91 22.18Q40.95 22.01 40.81 21.80L40.81 21.80Q41.36 21.05 41.53 20.18Q41.70 19.31 41.73 18.59L41.73 18.59Q41.97 18.35 42.16 17.91Q42.35 17.46 42.45 17.00Q42.55 16.54 42.54 16.11Q42.52 15.69 42.42 15.41L42.42 15.41Q42.45 15.24 42.79 15.31L42.79 15.31Q43.00 14.18 43.08 12.76Q43.17 11.35 43.37 10.06Q43.58 8.78 44.06 7.81Q44.54 6.83 45.60 6.53L45.60 6.53Q45.80 7.24 46.13 7.79Q46.45 8.34 46.84 8.83Q47.24 9.33 47.63 9.84Q48.02 10.35 48.36 11.00L48.36 11.00Q48.33 11.65 48.23 12.51Q48.13 13.36 47.97 14.25Q47.82 15.14 47.66 15.96Q47.51 16.78 47.37 17.36L47.37 17.36Q47.41 17.53 47.56 17.57Q47.71 17.60 47.61 17.87L47.61 17.87Q48.43 17.67 49.32 17.50Q50.21 17.33 51.10 17.12Q51.99 16.92 52.82 16.66Q53.66 16.40 54.38 16.03L54.38 16.03Q54.55 14.70 54.82 13.36Q55.10 12.03 54.89 10.63L54.89 10.63Q55.06 10.49 55.17 10.29Q55.27 10.08 55.51 10.01L55.51 10.01Q55.34 9.36 55.37 8.65Q55.41 7.93 55.63 7.28Q55.85 6.63 56.28 6.17Q56.70 5.71 57.32 5.57L57.32 5.57Q57.70 6.12 57.97 6.75Q58.24 7.38 58.53 8.01Q58.82 8.65 59.15 9.21Q59.47 9.77 59.99 10.18L59.99 10.18Q60.09 11.17 60.14 12.23Q60.19 13.29 60.22 14.39L60.22 14.39Q59.95 15.69 59.63 16.90Q59.30 18.11 59.17 19.48L59.17 19.48Q58.93 19.75 58.79 20.10Q58.65 20.44 58.52 20.80Q58.38 21.16 58.21 21.48Q58.04 21.80 57.80 22.04L57.80 22.04Q57.93 22.45 57.85 22.81Q57.76 23.17 58.04 23.68ZM70.34 3.48L70.34 3.48Q70.34 3.79 70.26 4.24Q70.17 4.68 70.10 5.13Q70.03 5.57 70.07 5.93Q70.10 6.29 70.38 6.39L70.38 6.39Q69.76 8.20 69.54 9.43Q69.32 10.66 69.16 11.77Q69.01 12.88 68.77 14.11Q68.53 15.34 67.92 17.12L67.92 17.12Q67.54 18.22 66.99 18.64Q66.45 19.07 65.83 19.07Q65.21 19.07 64.57 18.73Q63.92 18.39 63.37 17.98L63.37 17.98Q63.27 17.33 63.35 16.39Q63.44 15.45 63.57 14.42Q63.71 13.40 63.85 12.46Q63.98 11.52 64.05 10.87L64.05 10.87Q64.39 10.49 64.53 10.25Q64.67 10.01 64.72 9.74Q64.77 9.47 64.80 9.06Q64.84 8.65 64.98 7.89L64.98 7.89Q65.04 7.52 64.92 7.23Q64.80 6.94 64.87 6.66L64.87 6.66Q64.94 6.53 65.10 6.46Q65.25 6.39 65.28 6.22L65.28 6.22Q65.42 5.77 65.35 5.52Q65.28 5.26 65.45 4.89L65.45 4.89Q65.63 4.61 65.88 4.01Q66.14 3.42 66.07 2.77L66.07 2.77Q66.38 2.53 66.65 2.22Q66.92 1.91 67.21 1.66Q67.50 1.40 67.86 1.23Q68.22 1.06 68.74 1.06L68.74 1.06Q69.01 1.43 69.15 1.78Q69.28 2.12 69.40 2.42Q69.52 2.73 69.73 3.01Q69.93 3.28 70.34 3.48ZM66.82 22.66L66.96 22.93Q67.03 23.21 67.06 23.45Q67.09 23.68 67.13 23.96L67.13 23.96Q66.92 24.68 66.68 25.26L66.68 25.26Q66.58 25.50 66.55 25.56Q66.51 25.63 66.51 25.67Q66.51 25.70 66.55 25.75Q66.58 25.80 66.58 26.04L66.58 26.04L66.41 26.45Q66.24 26.69 66.02 26.83Q65.80 26.97 65.56 27.07L65.56 27.07Q65.45 27.14 65.33 27.19Q65.21 27.24 65.15 27.31L65.15 27.31L65.04 27.72L64.57 27.79Q64.02 27.92 63.57 27.92L63.57 27.92L63.20 27.92Q62.79 27.55 62.55 27.34Q62.31 27.14 62.00 26.97L62.00 26.97Q61.63 26.32 61.56 25.84L61.56 25.84Q61.49 25.39 61.39 25.26L61.39 25.26L60.91 24.78L61.32 24.47L60.91 23.82Q61.32 23.51 61.52 23.38Q61.73 23.24 61.88 23.09Q62.04 22.93 62.21 22.69Q62.38 22.45 62.75 21.91L62.75 21.91L63.06 21.46L63.47 21.70Q63.64 21.80 64.10 21.89Q64.57 21.98 64.91 22.04L64.91 22.04Q65.45 22.21 65.98 22.30Q66.51 22.39 66.82 22.66L66.82 22.66ZM89.17 23.79L89.17 23.79Q88.83 24.06 88.76 24.49Q88.70 24.92 88.59 25.33Q88.49 25.74 88.23 26.03Q87.98 26.32 87.33 26.28L87.33 26.28Q87.19 26.45 87.28 26.49Q87.36 26.52 87.43 26.79L87.43 26.79Q86.95 26.73 86.75 26.86Q86.54 27 86.24 27.07L86.24 27.07Q85.45 26.83 84.92 26.20Q84.39 25.56 84.00 24.81Q83.60 24.06 83.31 23.27Q83.02 22.49 82.71 21.91L82.71 21.91Q82.71 21.77 82.83 21.79Q82.95 21.80 83.06 21.80L83.06 21.80Q82.89 21.46 82.80 21.04Q82.71 20.61 82.48 20.33L82.48 20.33Q83.47 18.22 84.59 15.91Q85.72 13.60 86.87 11.23Q88.01 8.85 89.16 6.44Q90.30 4.03 91.36 1.71L91.36 1.71Q92.32 2.05 93.23 2.51Q94.13 2.97 94.88 3.59Q95.63 4.20 96.16 5.01Q96.69 5.81 96.87 6.83L96.87 6.83Q96.80 7.04 96.69 6.97Q96.59 6.90 96.52 7.04L96.52 7.04Q96.69 7.24 96.71 7.33Q96.73 7.42 96.69 7.50Q96.66 7.59 96.66 7.72Q96.66 7.86 96.83 8.10L96.83 8.10Q96.66 8.06 96.59 8.15Q96.52 8.24 96.35 8.17L96.35 8.17Q96.52 8.65 96.46 8.92Q96.39 9.19 96.25 9.41Q96.11 9.64 96.03 9.89Q95.94 10.15 96.08 10.59L96.08 10.59Q95.94 10.59 95.89 10.65Q95.84 10.70 95.81 10.76Q95.77 10.83 95.72 10.88Q95.67 10.94 95.53 10.90L95.53 10.90Q95.63 11.79 95.60 12.70Q95.57 13.60 95.53 14.54Q95.50 15.48 95.53 16.47Q95.57 17.46 95.81 18.52L95.81 18.52Q97.28 17.67 98.18 16.30Q99.09 14.93 99.62 13.26Q100.15 11.58 100.44 9.67Q100.73 7.76 101.04 5.77L101.04 5.77Q101.41 5.40 101.63 4.85Q101.86 4.30 102.01 3.72Q102.16 3.14 102.32 2.54Q102.47 1.95 102.74 1.47L102.74 1.47Q103.36 1.54 103.79 1.83Q104.21 2.12 104.59 2.48Q104.97 2.83 105.38 3.14Q105.79 3.45 106.40 3.55L106.40 3.55Q106.88 4.24 107.29 4.87Q107.70 5.50 107.84 6.29L107.84 6.29Q107.63 6.63 107.53 7.04Q107.43 7.45 107.31 7.86Q107.19 8.27 106.98 8.61Q106.78 8.95 106.40 9.19L106.40 9.19Q106.30 10.22 106.09 11.11Q105.89 12.00 105.72 12.85Q105.55 13.70 105.41 14.63Q105.27 15.55 105.31 16.64L105.31 16.64Q105 17.63 104.62 18.68Q104.25 19.72 104.08 20.61L104.08 20.61Q103.43 21.12 103.05 21.87Q102.68 22.63 102.27 23.38L102.27 23.38Q102.09 23.51 102.06 23.43Q102.03 23.34 101.75 23.31L101.75 23.31Q101.79 23.62 101.63 23.70Q101.48 23.79 101.65 24.20L101.65 24.20Q101.07 24.47 100.63 24.92Q100.18 25.36 99.65 25.74Q99.12 26.11 98.42 26.23Q97.72 26.35 96.59 25.94L96.59 25.94Q94.92 24.71 93.58 23.10Q92.25 21.50 91.46 19.31L91.46 19.31Q91.12 19.41 90.95 19.75Q90.78 20.10 90.64 20.47Q90.51 20.85 90.37 21.16Q90.23 21.46 89.96 21.46L89.96 21.46Q89.89 21.77 89.70 22.03Q89.52 22.28 89.35 22.54Q89.17 22.80 89.09 23.10Q89.00 23.41 89.17 23.79ZM126.88 16.75L126.88 16.75Q126.84 17.16 126.94 17.53Q127.05 17.91 127.20 18.27Q127.35 18.63 127.49 19.00Q127.63 19.38 127.70 19.75L127.70 19.75Q127.76 20.23 127.70 20.80Q127.63 21.36 127.46 21.89Q127.29 22.42 127.01 22.85Q126.74 23.27 126.36 23.48L126.36 23.48Q125.88 24.09 125.20 24.44Q124.52 24.78 123.94 25.26L123.94 25.26Q123.56 25.50 123.10 25.60Q122.64 25.70 122.16 25.80L122.16 25.80Q121.78 26.01 121.27 26.23Q120.76 26.45 120.21 26.64Q119.66 26.83 119.12 26.91Q118.57 27 118.16 26.97L118.16 26.97Q117.13 27.34 116.16 27.46Q115.19 27.58 113.89 27.31L113.89 27.31Q112.66 27.48 111.61 27.21Q110.57 26.93 109.77 26.33Q108.96 25.74 108.37 24.90Q107.77 24.06 107.39 23.14L107.39 23.14Q107.12 21.19 107.53 19.60Q107.94 18.01 108.71 16.66Q109.48 15.31 110.47 14.17Q111.46 13.02 112.38 11.93L112.38 11.93Q112.59 12.00 112.71 11.91Q112.83 11.82 112.93 11.67Q113.03 11.52 113.15 11.38Q113.27 11.24 113.44 11.21L113.44 11.21Q113.68 10.70 114.14 10.44Q114.60 10.18 114.88 9.71L114.88 9.71Q115.19 9.64 115.39 9.50Q115.60 9.36 115.78 9.19Q115.97 9.02 116.18 8.87Q116.38 8.71 116.66 8.65L116.66 8.65L116.66 8.27Q117.27 8.00 117.56 7.64Q117.85 7.28 118.26 6.77L118.26 6.77Q118.57 6.73 118.76 6.73Q118.95 6.73 119.32 6.66L119.32 6.66Q119.59 6.18 119.82 5.95Q120.04 5.71 120.48 5.43L120.48 5.43Q120.89 5.64 121.39 5.71Q121.88 5.77 122.26 6.15L122.26 6.15Q122.29 6.49 122.47 6.68Q122.64 6.87 122.84 7.02Q123.05 7.18 123.23 7.35Q123.42 7.52 123.49 7.83L123.49 7.83Q123.63 7.86 123.68 7.79Q123.73 7.72 123.87 7.76L123.87 7.76Q123.97 8.24 124.11 8.39Q124.24 8.54 124.38 8.99L124.38 8.99Q124.21 9.33 124.12 9.69Q124.04 10.05 123.70 10.22L123.70 10.22Q123.66 10.46 123.83 10.47Q124.00 10.49 124.04 10.66L124.04 10.66Q124.07 10.97 123.94 11.11L123.94 11.11Q124.76 12.44 125.41 13.93Q126.05 15.41 126.88 16.75ZM122.60 19.99L122.60 19.99Q122.74 19.62 122.96 19.38Q123.18 19.14 123.22 18.66L123.22 18.66Q123.05 18.39 123.01 18.23Q122.98 18.08 122.98 17.74L122.98 17.74Q122.23 16.68 121.68 15.46Q121.13 14.25 120.45 13.19L120.45 13.19Q120.38 13.33 120.21 13.46Q120.04 13.60 119.83 13.40L119.83 13.40Q119.77 13.67 119.59 13.79Q119.42 13.91 119.22 13.89Q119.01 13.88 118.79 13.79Q118.57 13.70 118.40 13.57L118.40 13.57Q117.41 14.35 116.42 15.11Q115.42 15.86 114.64 16.85L114.64 16.85Q114.50 16.92 114.47 16.90Q114.43 16.88 114.26 16.95L114.26 16.95Q113.99 17.60 113.60 18.13Q113.20 18.66 112.83 19.21Q112.45 19.75 112.18 20.37Q111.90 20.98 111.87 21.80L111.87 21.80Q112.45 22.28 113.24 22.39Q114.02 22.49 114.86 22.42Q115.70 22.35 116.50 22.20Q117.30 22.04 117.99 22.04L117.99 22.04Q119.42 21.70 120.45 21.14Q121.47 20.57 122.60 19.99ZM146.67 10.56L146.67 10.56Q145.81 10.56 144.82 10.68Q143.83 10.80 142.87 10.94L142.87 10.94Q142.19 11.04 141.56 11.11Q140.92 11.17 140.41 11.21L140.41 11.21Q140.17 11.96 139.93 12.54Q139.69 13.12 139.42 13.67L139.42 13.67Q139.15 14.25 138.92 14.85Q138.70 15.45 138.50 16.13L138.50 16.13Q138.15 16.68 137.93 17.14Q137.71 17.60 137.57 18.18L137.57 18.18Q137.16 18.69 136.96 19.26Q136.75 19.82 136.65 20.23L136.65 20.23L136.51 20.64Q136.31 20.85 136.27 20.97Q136.24 21.09 136.10 21.19L136.10 21.19Q136.07 21.57 135.86 21.94L135.86 21.94Q135.80 22.11 135.76 22.27Q135.73 22.42 135.73 22.49L135.73 22.49Q135.73 22.83 135.56 22.93L135.56 22.93Q135.59 23.10 135.56 23.29Q135.52 23.48 135.49 23.65L135.49 23.65Q135.39 24.06 135.42 24.30L135.42 24.30Q135.52 24.44 135.61 24.54Q135.69 24.64 135.73 24.81L135.73 24.81Q135.93 24.95 136.04 24.98L136.04 24.98Q136.17 25.09 136.45 25.22L136.45 25.22L136.75 25.56Q136.92 26.56 136.45 27.14L136.45 27.14Q135.93 27.79 134.70 27.79L134.70 27.79L134.29 27.79Q134.12 27.62 134.09 27.51L134.09 27.51Q133.81 27.41 133.64 27.34Q133.47 27.27 133.33 27.07L133.33 27.07Q132.89 26.86 132.62 26.73L132.62 26.73L132.31 26.56Q132.31 26.18 132.31 26.15L132.31 26.15Q132.07 25.84 131.95 25.46Q131.83 25.09 131.76 24.71L131.76 24.71Q131.69 24.40 131.61 24.13Q131.52 23.86 131.39 23.65L131.39 23.65Q131.32 21.67 131.76 20.30Q132.21 18.93 132.69 17.67L132.69 17.67Q132.96 16.99 133.23 16.28Q133.51 15.58 133.71 14.83L133.71 14.83L134.02 14.49Q134.26 13.94 134.41 13.58Q134.57 13.23 134.74 12.85L134.74 12.85Q134.84 12.61 134.92 12.39Q135.01 12.17 135.08 12.00L135.08 12.00Q134.87 12.00 134.70 12.01Q134.53 12.03 134.36 12.06L134.36 12.06Q134.16 12.10 133.98 12.11Q133.81 12.13 133.64 12.13L133.64 12.13Q133.40 12.13 133.30 12.10L133.30 12.10Q132.92 12.27 132.48 12.27L132.48 12.27L132.14 12.27Q132.04 12.27 131.95 12.25Q131.87 12.23 131.80 12.23L131.80 12.23Q131.46 12.23 131.25 12.34L131.25 12.34Q130.84 12.34 130.46 12.34L130.46 12.34L130.12 12.34Q130.05 12.34 129.95 12.35Q129.85 12.37 129.78 12.37L129.78 12.37Q129.54 12.37 129.27 12.32Q128.99 12.27 128.69 12.10L128.69 12.10Q128.28 11.55 128.14 11.52L128.14 11.52L127.83 11.11Q127.80 10.90 127.73 10.71Q127.66 10.53 127.59 10.29L127.59 10.29Q127.46 9.94 127.34 9.55Q127.22 9.16 127.22 8.61L127.22 8.61Q127.25 8.34 127.35 8.20Q127.46 8.06 127.52 7.96L127.52 7.96L127.63 7.45L128.07 7.48L129.03 7.48Q130.12 7.48 131.25 7.40Q132.38 7.31 133.57 7.21L133.57 7.21Q134.26 7.14 134.96 7.07Q135.66 7.00 136.41 6.94L136.41 6.94Q136.55 6.63 136.68 6.36L136.68 6.36L137.03 6.18Q137.64 6.15 137.90 6.34Q138.15 6.53 138.33 6.70L138.33 6.70Q139.08 6.63 139.85 6.54Q140.62 6.46 141.40 6.32L141.40 6.32Q142.56 6.15 143.74 6.01Q144.92 5.88 146.02 5.88L146.02 5.88Q146.49 5.88 146.94 5.91Q147.38 5.95 147.76 6.01L147.76 6.01L148.10 6.25Q148.20 6.46 148.39 6.63Q148.58 6.80 148.78 6.97L148.78 6.97Q149.19 7.35 149.60 7.86Q150.01 8.37 149.91 9.36L149.91 9.36Q149.64 9.77 149.50 9.84L149.50 9.84L149.19 10.25L148.85 10.22Q148.65 10.22 148.48 10.27Q148.31 10.32 148.13 10.39L148.13 10.39Q148.00 10.46 147.86 10.51Q147.72 10.56 147.55 10.59L147.55 10.59Q147.25 10.59 147.06 10.58Q146.87 10.56 146.67 10.56ZM163.07 7.76L163.07 7.76Q163.11 8.00 163.09 8.12Q163.07 8.24 163.05 8.34Q163.04 8.44 163.04 8.56Q163.04 8.68 163.11 8.92L163.11 8.92Q162.39 10.08 161.45 10.51Q160.51 10.94 159.41 11.12Q158.32 11.31 157.18 11.52Q156.03 11.72 154.90 12.41L154.90 12.41Q154.46 12.23 154.10 12.41Q153.74 12.58 153.06 12.51L153.06 12.51Q152.85 12.71 152.54 12.80Q152.24 12.88 151.93 12.99L151.93 12.99Q152.07 13.29 152.05 13.62Q152.03 13.94 152.13 14.15L152.13 14.15Q153.33 14.25 154.78 14.11Q156.24 13.98 157.64 13.94L157.64 13.94Q157.67 14.11 157.60 14.17Q157.53 14.22 157.57 14.35L157.57 14.35Q157.81 14.52 158.05 14.78Q158.29 15.04 158.53 15.28Q158.76 15.52 159.02 15.67Q159.28 15.82 159.62 15.79L159.62 15.79Q159.76 16.06 159.81 16.39Q159.86 16.71 159.72 17.05L159.72 17.05Q159.17 17.43 158.63 17.82Q158.08 18.22 157.48 18.52Q156.88 18.83 156.22 19.02Q155.55 19.21 154.73 19.17L154.73 19.17Q154.56 19.17 154.48 19.17Q154.39 19.17 154.25 19.07L154.25 19.07Q153.98 19.24 153.48 19.17Q152.99 19.10 152.71 19.28L152.71 19.28Q152.34 19.10 151.81 19.12Q151.28 19.14 150.87 19.00L150.87 19.00Q150.32 19.72 149.88 20.54Q149.43 21.36 149.09 22.28L149.09 22.28Q150.25 22.45 151.02 22.42Q151.79 22.39 152.48 22.30Q153.16 22.21 153.88 22.13Q154.59 22.04 155.69 22.08L155.69 22.08Q156.37 21.70 157.31 21.58Q158.25 21.46 159.04 21.19L159.04 21.19Q159.31 21.29 159.52 21.55Q159.72 21.80 159.91 22.03Q160.10 22.25 160.30 22.42Q160.51 22.59 160.82 22.56L160.82 22.56Q160.95 22.69 161.00 22.88Q161.05 23.07 161.09 23.24Q161.12 23.41 161.21 23.53Q161.29 23.65 161.50 23.62L161.50 23.62Q160.99 24.74 160.32 25.34Q159.65 25.94 158.80 26.25Q157.94 26.56 156.90 26.73Q155.86 26.90 154.59 27.14L154.59 27.14Q154.29 27.21 154.08 27.12Q153.88 27.03 153.60 27.03L153.60 27.03Q152.82 27.21 151.72 27.34Q150.63 27.48 149.50 27.44Q148.37 27.41 147.35 27.15Q146.32 26.90 145.67 26.25L145.67 26.25Q145.40 26.01 145.31 25.68Q145.23 25.36 144.85 25.19L144.85 25.19Q144.82 24.74 144.72 24.20Q144.61 23.65 144.51 23.05Q144.41 22.45 144.36 21.87Q144.31 21.29 144.41 20.81L144.41 20.81Q144.51 20.30 144.84 19.89Q145.16 19.48 145.06 19.00L145.06 19.00Q145.23 18.97 145.26 18.81Q145.30 18.66 145.54 18.69L145.54 18.69Q145.74 18.08 145.98 17.53Q146.22 16.99 146.48 16.47Q146.73 15.96 146.99 15.43Q147.25 14.90 147.49 14.25L147.49 14.25Q147.01 13.81 146.78 13.28Q146.56 12.75 146.46 12.22Q146.36 11.69 146.29 11.12Q146.22 10.56 146.05 9.98L146.05 9.98Q146.39 9.47 146.89 9.14Q147.38 8.82 147.96 8.61Q148.54 8.41 149.23 8.27Q149.91 8.13 150.66 7.96L150.66 7.96Q152.03 7.52 153.11 7.28Q154.18 7.04 155.23 6.89Q156.27 6.73 157.40 6.59Q158.53 6.46 159.96 6.18L159.96 6.18Q160.27 6.49 160.54 6.49L160.54 6.49Q160.68 6.18 160.87 6.30Q161.05 6.42 161.02 6.12L161.02 6.12Q161.36 6.70 161.89 7.09Q162.42 7.48 163.07 7.76Z"/></g>
            
          </svg>
        